# xmcd
#
# Track frame offsets:
#	150
#	32165
#	65784
#	117181
#	163098
#	185179
#	188864
#	214053
#	263483
#	279607
#
# Disc length: 4678 seconds
#
# Revision: 1
# Processed by: cddbd v1.5.2PL0 Copyright (c) Steve Scherf et al.
# Submitted via: audiograbber 1.83.01
#
DISCID=9a12440a
DTITLE=Grateful Dead - 76-07-13 Orpheum Theatre, San Francisco CA
DYEAR=1900
DGENRE=
TTITLE0=It Must Have Been The Roses
TTITLE1=Samson and Delilah
TTITLE2=High Time
TTITLE3=St Stephen
TTITLE4=Not Fade Away
TTITLE5=St Stephen
TTITLE6=Sugar Magnolia
TTITLE7=Stella Blue
TTITLE8=Sunshine Daydream
TTITLE9=Dancing In The Streets
EXTD=
EXTT0=
EXTT1=
EXTT2=
EXTT3=
EXTT4=
EXTT5=
EXTT6=
EXTT7=
EXTT8=
EXTT9=
PLAYORDER=
